<svg xmlns="http://www.w3.org/2000/svg" viewBox="0 0 512 512">
  <rect width="512" height="512" fill="#4C8687"/>
  <g fill="#F8F6F1" transform="translate(58.23 27.66) scale(0.9554)">
    <path d="M 191.500 82.707 C 159.015 87.116, 130.739 107.640, 117.412 136.483 C 112.065 148.058, 109.791 157.919, 109.108 172.500 L 108.500 185.500 95.500 185.777 L 82.500 186.053 82.782 212.527 L 83.064 239 96.032 239 L 109 239 109 317.500 L 109 396 135.500 396 L 162 396 162 317.500 L 162 239 195 239 L 228 239 228 212.500 L 228 186 194.869 186 L 161.738 186 162.197 175.665 C 162.765 162.897, 166.065 154.840, 173.957 146.947 C 183.977 136.928, 191.671 135, 221.636 135 L 243 135 243 108.500 L 243 82 218.750 82.150 C 205.412 82.232, 193.150 82.483, 191.500 82.707"/>
    <path transform="translate(-593 0)" d="M 866 366.485 L 866 396 895.515 396 L 925.030 396 924.765 366.750 L 924.500 337.500 895.250 337.235 L 866 336.970 866 366.485"/>
  </g>
</svg>
